<?xml version="1.0" encoding="UTF-8"?><svg id="Ebene_2" xmlns="http://www.w3.org/2000/svg" viewBox="0 0 39.7 37.18"><defs><style>.cls-1{fill:#00a99d;}</style></defs><g id="Ebene_1-2"><path class="cls-1" d="m27.08,7.6l3.67,3.67c-.06.14-.09.29-.09.44,0,.62.5,1.12,1.12,1.12s1.12-.5,1.12-1.12-.5-1.12-1.12-1.12c-.16,0-.31.03-.44.09l-3.91-3.91h-13.76l-3.86,3.86c-.14-.07-.31-.11-.48-.11-.62,0-1.12.5-1.12,1.12s.5,1.12,1.12,1.12,1.12-.5,1.12-1.12c0-.15-.03-.28-.08-.41l3.63-3.63h13.08Z"/><path class="cls-1" d="m3.37,9.01c.62,0,1.12-.5,1.12-1.12,0-.16-.03-.31-.09-.44L11.02.82h19.05l7.5,7.5c-.07.15-.11.31-.11.48,0,.62.5,1.12,1.12,1.12s1.12-.5,1.12-1.12-.5-1.12-1.12-1.12c-.14,0-.28.03-.4.08L30.41,0H10.68L3.82,6.87c-.14-.06-.29-.09-.44-.09-.62,0-1.12.5-1.12,1.12s.5,1.12,1.12,1.12Z"/><path class="cls-1" d="m8.99,18.59c.62,0,1.12-.5,1.12-1.12s-.5-1.12-1.12-1.12c-.16,0-.31.03-.44.09l-2.61-2.61v-3.02l2.48-2.48c.13.05.28.08.43.08.62,0,1.12-.5,1.12-1.12s-.5-1.12-1.12-1.12-1.12.5-1.12,1.12c0,.17.04.32.1.46l-2.71,2.71v3.7l2.85,2.85c-.06.14-.09.29-.09.44,0,.62.5,1.12,1.12,1.12Z"/><path class="cls-1" d="m12.22,14.79c.62,0,1.12-.5,1.12-1.12,0-.16-.03-.31-.09-.44l2.39-2.39h9.42c.16.41.57.71,1.04.71.62,0,1.12-.5,1.12-1.12s-.5-1.12-1.12-1.12c-.47,0-.88.29-1.04.71h-9.76l-2.63,2.63c-.14-.06-.29-.09-.44-.09-.62,0-1.12.5-1.12,1.12s.5,1.12,1.12,1.12Z"/><path class="cls-1" d="m13.33,18.48c.47,0,.88-.29,1.04-.71h9.13c.16.41.57.71,1.04.71.62,0,1.12-.5,1.12-1.12s-.5-1.12-1.12-1.12c-.47,0-.88.29-1.04.71h-9.13c-.16-.41-.57-.71-1.04-.71-.62,0-1.12.5-1.12,1.12s.5,1.12,1.12,1.12Z"/><path class="cls-1" d="m15.23,23.02c-.47,0-.87.29-1.04.71h-7.98s-4.69-4.7-4.69-4.7v-5.5c.41-.16.71-.57.71-1.04,0-.62-.5-1.12-1.12-1.12s-1.12.5-1.12,1.12c0,.47.29.88.71,1.04v5.84l5.17,5.17h8.32c.16.42.57.72,1.04.72.62,0,1.12-.5,1.12-1.12s-.5-1.12-1.12-1.12Z"/><path class="cls-1" d="m27.98,17.47c.62,0,1.12-.5,1.12-1.12s-.5-1.12-1.12-1.12c-.16,0-.31.03-.44.09l-1.77-1.77h-5.78c-.16-.41-.57-.71-1.04-.71-.62,0-1.12.5-1.12,1.12s.5,1.12,1.12,1.12c.47,0,.88-.29,1.04-.71h5.44l1.53,1.53c-.06.14-.09.29-.09.44,0,.62.5,1.12,1.12,1.12Z"/><path class="cls-1" d="m21.81,21.87c.16,0,.31-.03.45-.09l5.47,5.47,7.81-7.81v-6.34c.41-.16.71-.57.71-1.04,0-.62-.5-1.12-1.12-1.12s-1.12.5-1.12,1.12c0,.47.29.88.71,1.04v6l-6.99,6.99-4.89-4.89c.06-.14.09-.28.09-.44,0-.62-.5-1.12-1.12-1.12s-1.12.5-1.12,1.12.5,1.12,1.12,1.12Z"/><path class="cls-1" d="m33.2,25.07c-.62,0-1.12.5-1.12,1.12,0,.16.03.31.09.44l-3.96,3.96v1.43c-.41.16-.71.57-.71,1.04,0,.62.5,1.12,1.12,1.12s1.12-.5,1.12-1.12c0-.47-.29-.88-.71-1.04v-1.09l3.72-3.72c.14.06.29.09.44.09.62,0,1.12-.5,1.12-1.12s-.5-1.12-1.12-1.12Z"/><path class="cls-1" d="m25.39,35.02v-6.74l-7.91-7.91H7.7l-2.58-2.58c.06-.14.09-.29.09-.44,0-.62-.5-1.12-1.12-1.12s-1.12.5-1.12,1.12.5,1.12,1.12,1.12c.16,0,.31-.03.44-.09l2.82,2.82h9.78l7.42,7.42v6.4c-.41.16-.71.57-.71,1.04,0,.62.5,1.12,1.12,1.12s1.12-.5,1.12-1.12c0-.47-.29-.88-.71-1.04Z"/><path class="cls-1" d="m38.52,12.86c-.62,0-1.12.5-1.12,1.12,0,.47.29.88.71,1.04v5.66l-1.86,1.86c-.14-.06-.29-.09-.44-.09-.62,0-1.12.5-1.12,1.12s.5,1.12,1.12,1.12,1.12-.5,1.12-1.12c0-.16-.03-.31-.09-.44l2.1-2.1v-6c.41-.16.71-.57.71-1.04,0-.62-.5-1.12-1.12-1.12Z"/><path class="cls-1" d="m32.73,8.99c.62,0,1.12-.5,1.12-1.12s-.5-1.12-1.12-1.12c-.16,0-.31.03-.44.09l-3.46-3.46h-14.53c-.16-.41-.57-.71-1.04-.71-.62,0-1.12.5-1.12,1.12s.5,1.12,1.12,1.12c.47,0,.88-.29,1.04-.71h14.19l3.22,3.22c-.06.14-.09.29-.09.44,0,.62.5,1.12,1.12,1.12Z"/><path class="cls-1" d="m32.19,16.59c.41-.16.71-.57.71-1.04,0-.62-.5-1.12-1.12-1.12s-1.12.5-1.12,1.12c0,.47.29.88.71,1.04v1.17l-3.13,3.13c-.14-.06-.29-.09-.44-.09-.62,0-1.12.5-1.12,1.12s.5,1.12,1.12,1.12,1.12-.5,1.12-1.12c0-.16-.03-.31-.09-.44l3.37-3.37v-1.51Z"/></g></svg>