<?xml version="1.0" encoding="UTF-8"?><svg id="Ebene_2" xmlns="http://www.w3.org/2000/svg" viewBox="0 0 147.97 37.18"><defs><style>.cls-1{fill:#00a99d;}</style></defs><g id="Ebene_1-2"><polygon class="cls-1" points="67.15 7.2 63.71 7.2 59.89 12.62 55.93 7.2 52.36 7.2 57.99 14.75 52.07 22.73 55.54 22.73 59.71 16.87 63.88 22.73 67.44 22.73 61.62 14.7 67.15 7.2"/><path class="cls-1" d="m80.48,7.85c-1.1-.65-2.37-.98-3.81-.98s-2.86.35-4.07,1.06c-1.21.71-2.17,1.67-2.88,2.9-.71,1.22-1.06,2.59-1.06,4.12s.36,2.93,1.08,4.15c.72,1.22,1.7,2.19,2.94,2.9,1.24.71,2.64,1.06,4.19,1.06,1.22,0,2.37-.23,3.45-.69,1.08-.46,1.99-1.12,2.73-1.99l-1.9-1.93c-.52.61-1.15,1.07-1.88,1.37-.73.31-1.53.46-2.4.46-1.05,0-1.97-.22-2.78-.67-.81-.45-1.43-1.08-1.86-1.9-.26-.5-.42-1.06-.53-1.65h12.14c.06-.33.11-.62.13-.87.02-.25.03-.49.03-.7,0-1.46-.31-2.77-.93-3.93-.62-1.15-1.48-2.06-2.59-2.71Zm-6.53,2.39c.76-.44,1.65-.65,2.65-.65s1.78.2,2.45.61c.67.4,1.2.97,1.57,1.7.25.49.38,1.08.46,1.72h-9.4c.1-.56.25-1.08.49-1.54.41-.78,1-1.4,1.76-1.83Z"/><path class="cls-1" d="m108.23,7.59c-.89-.48-1.91-.72-3.04-.72s-2.09.25-3.01.74-1.66,1.17-2.24,2.03c-.01.02-.02.05-.03.07-.01-.03-.02-.06-.03-.08-.51-.87-1.21-1.55-2.09-2.03-.88-.48-1.87-.72-2.96-.72s-2.12.25-3.01.74c-.68.37-1.21.89-1.67,1.48v-1.89h-2.94v15.54h2.94v-9.42c0-.76.18-1.42.52-1.96.35-.55.81-.97,1.37-1.28.57-.3,1.21-.46,1.93-.46,1.07,0,1.96.33,2.67,1,.71.66,1.06,1.57,1.06,2.73v9.39h2.94v-9.42c0-.76.17-1.42.52-1.96s.81-.97,1.39-1.28c.58-.3,1.23-.46,1.95-.46,1.05,0,1.92.33,2.63,1,.71.66,1.06,1.57,1.06,2.73v9.39h2.98v-9.98c0-1.22-.27-2.27-.8-3.14-.53-.87-1.25-1.55-2.14-2.03Z"/><path class="cls-1" d="m126.94,9.36c-.54-.72-1.19-1.33-2.01-1.76-.93-.49-1.98-.74-3.16-.74-1.44,0-2.73.36-3.88,1.08s-2.05,1.69-2.71,2.91c-.67,1.22-1,2.6-1,4.12s.33,2.9,1,4.12c.66,1.22,1.57,2.19,2.73,2.9,1.15.71,2.44,1.06,3.86,1.06,1.2,0,2.26-.25,3.19-.74.81-.43,1.45-1.03,1.98-1.75v2.16h2.98V7.2h-2.98v2.17Zm-1.14,9.43c-.89.99-2.07,1.49-3.53,1.49-.98,0-1.85-.23-2.62-.69s-1.36-1.08-1.78-1.88c-.42-.8-.64-1.72-.64-2.76s.21-1.93.64-2.73c.43-.8,1.02-1.42,1.77-1.88.75-.46,1.62-.69,2.6-.69s1.84.22,2.58.67c.74.45,1.31,1.07,1.72,1.87.4.8.6,1.73.6,2.8,0,1.55-.45,2.82-1.34,3.81Z"/><polygon class="cls-1" points="147.97 22.73 142.15 14.7 147.68 7.2 144.25 7.2 140.42 12.62 136.46 7.2 132.9 7.2 138.53 14.75 132.6 22.73 136.07 22.73 140.24 16.87 144.41 22.73 147.97 22.73"/><path class="cls-1" d="m54.1,36.29v-5.06h.54v5.06h-.54Zm.35-2.03v-.48h1.49c.21,0,.39-.04.56-.13.16-.08.29-.2.39-.36.1-.16.14-.34.14-.56s-.05-.4-.14-.56c-.1-.15-.23-.27-.39-.36-.16-.09-.35-.13-.56-.13h-1.49v-.47h1.53c.3,0,.58.06.82.19s.43.3.57.53c.14.23.21.49.21.8s-.07.57-.21.8-.33.4-.57.53-.51.19-.82.19h-1.53Z"/><path class="cls-1" d="m59.24,36.29v-5.06h.54v5.06h-.54Zm.35-2.27v-.46h1.47c.33,0,.59-.08.77-.25.18-.17.26-.4.26-.68s-.09-.5-.26-.67c-.18-.17-.43-.26-.77-.26h-1.47v-.47h1.47c.33,0,.61.06.85.18.23.12.42.29.54.5.13.21.19.45.19.72s-.06.52-.19.74-.31.37-.54.49c-.24.12-.52.17-.85.17h-1.47Zm2.71,2.27l-1.9-2.34.52-.17,2.07,2.51h-.69Z"/><path class="cls-1" d="m66.72,36.36c-.36,0-.69-.07-1-.2s-.58-.32-.81-.56c-.23-.24-.41-.52-.54-.83s-.19-.66-.19-1.02.06-.71.19-1.02c.13-.31.31-.59.54-.82.23-.24.5-.42.8-.55.3-.13.64-.2.99-.2s.69.07,1,.2c.31.13.57.32.81.55.23.23.41.51.54.83.13.32.19.66.19,1.03s-.06.7-.19,1.02c-.13.32-.31.59-.53.83s-.49.42-.8.56c-.3.13-.64.2-.99.2Zm-.01-.52c.38,0,.72-.09,1.02-.27s.53-.43.7-.74c.17-.31.25-.67.25-1.07,0-.3-.05-.58-.15-.83s-.24-.47-.41-.66c-.18-.19-.38-.33-.62-.44s-.5-.15-.79-.15c-.38,0-.71.09-1.01.27-.3.18-.53.42-.7.74-.17.31-.25.67-.25,1.07,0,.3.05.58.15.83s.24.48.41.67c.18.19.38.33.62.44.24.1.5.16.78.16Z"/><path class="cls-1" d="m70.58,35.93l2.96-4.34h.64l-2.96,4.34h-.64Zm0,.36v-.36l.46-.13h3.08v.49h-3.54Zm.14-4.57v-.49h3.46v.36l-.47.13h-2.99Z"/><path class="cls-1" d="m75.89,36.29v-5.06h.54v5.06h-.54Zm.35-4.57v-.49h2.94v.49h-2.94Zm0,2.21v-.48h2.74v.48h-2.74Zm0,2.35v-.49h2.98v.49h-2.98Z"/><path class="cls-1" d="m82.23,36.36c-.39,0-.73-.07-1.01-.22-.29-.15-.53-.36-.75-.63l.38-.37c.17.24.37.42.6.54.23.12.5.18.81.18s.59-.07.79-.22c.2-.15.3-.35.3-.61,0-.2-.05-.37-.14-.5s-.21-.24-.36-.32-.32-.15-.5-.22c-.18-.06-.36-.13-.54-.2-.18-.07-.35-.16-.5-.27-.15-.11-.27-.25-.36-.41-.09-.17-.14-.38-.14-.64,0-.27.07-.51.2-.71.13-.2.31-.35.54-.45s.49-.16.79-.16c.33,0,.62.06.88.19.26.13.47.3.64.52l-.37.37c-.16-.19-.33-.33-.52-.43-.19-.1-.4-.15-.65-.15-.29,0-.53.07-.71.21-.18.14-.26.33-.26.57,0,.19.05.35.14.46.09.12.21.22.36.29.15.08.32.15.5.21.18.06.36.13.54.2s.35.17.5.28c.15.11.27.26.36.43.09.17.14.4.14.67,0,.44-.15.78-.44,1.02-.3.24-.7.36-1.21.36Z"/><path class="cls-1" d="m86.9,36.36c-.39,0-.73-.07-1.01-.22-.29-.15-.53-.36-.75-.63l.38-.37c.17.24.37.42.6.54.23.12.5.18.81.18s.59-.07.79-.22c.2-.15.3-.35.3-.61,0-.2-.05-.37-.14-.5s-.21-.24-.36-.32-.32-.15-.5-.22c-.18-.06-.36-.13-.54-.2-.18-.07-.35-.16-.5-.27-.15-.11-.27-.25-.36-.41-.09-.17-.14-.38-.14-.64,0-.27.07-.51.2-.71.13-.2.31-.35.54-.45s.49-.16.79-.16c.33,0,.62.06.88.19.26.13.47.3.64.52l-.37.37c-.16-.19-.33-.33-.52-.43-.19-.1-.4-.15-.65-.15-.29,0-.53.07-.71.21-.18.14-.26.33-.26.57,0,.19.05.35.14.46.09.12.21.22.36.29.15.08.32.15.5.21.18.06.36.13.54.2s.35.17.5.28c.15.11.27.26.36.43.09.17.14.4.14.67,0,.44-.15.78-.44,1.02-.3.24-.7.36-1.21.36Z"/><path class="cls-1" d="m90.32,36.29v-5.06h.54v5.06h-.54Zm.35-4.57v-.49h2.94v.49h-2.94Zm0,2.21v-.48h2.74v.48h-2.74Zm0,2.35v-.49h2.98v.49h-2.98Z"/><path class="cls-1" d="m97.7,36.29v-5.06h.38l.15.64v4.42h-.54Zm3.5,0l-3.2-4.34.08-.72,3.19,4.34-.07.72Zm0,0l-.16-.61v-4.45h.54v5.06h-.38Z"/><path class="cls-1" d="m103.61,36.29v-5.06h.54v5.06h-.54Zm.35-4.57v-.49h2.94v.49h-2.94Zm0,2.21v-.48h2.74v.48h-2.74Zm0,2.35v-.49h2.98v.49h-2.98Z"/><path class="cls-1" d="m110.53,36.36c-.37,0-.7-.08-.98-.25-.29-.16-.51-.39-.68-.68-.17-.29-.25-.61-.25-.97v-3.24h.54v3.21c0,.28.06.53.18.74.12.21.28.37.49.49.21.11.44.17.7.17s.49-.06.69-.17c.2-.11.37-.27.49-.48.12-.21.18-.45.18-.74v-3.22h.54v3.25c0,.36-.08.68-.25.96-.16.28-.39.51-.68.67-.29.16-.61.25-.97.25Z"/><path class="cls-1" d="m114.39,36.29v-5.06h.54v5.06h-.54Zm.33,0v-.5h1.49c.4,0,.75-.09,1.05-.26.3-.17.54-.41.71-.72s.26-.66.26-1.06-.09-.75-.26-1.05c-.17-.3-.41-.54-.71-.72-.3-.17-.65-.26-1.05-.26h-1.47v-.49h1.49c.37,0,.71.06,1.02.19s.58.3.82.53c.23.23.41.5.54.8s.19.64.19,1.01-.06.69-.19,1c-.13.31-.31.58-.54.81-.23.23-.5.41-.81.53-.31.13-.65.19-1.01.19h-1.52Z"/><path class="cls-1" d="m120.56,36.29v-5.06h.54v5.06h-.54Zm.35-4.57v-.49h2.94v.49h-2.94Zm0,2.21v-.48h2.74v.48h-2.74Zm0,2.35v-.49h2.98v.49h-2.98Z"/><path class="cls-1" d="m125.63,36.29v-5.06h.38l.15.64v4.42h-.54Zm3.5,0l-3.2-4.34.08-.72,3.19,4.34-.07.72Zm0,0l-.16-.61v-4.45h.54v5.06h-.38Z"/><path class="cls-1" d="m131.54,36.29v-5.06h.54v5.06h-.54Zm3.21,0l-2.77-2.64,2.71-2.42h.72l-2.88,2.57v-.31s2.96,2.8,2.96,2.8h-.74Z"/><path class="cls-1" d="m136.99,36.29v-5.06h.54v5.06h-.54Zm.35-4.57v-.49h2.94v.49h-2.94Zm0,2.21v-.48h2.74v.48h-2.74Zm0,2.35v-.49h2.98v.49h-2.98Z"/><path class="cls-1" d="m142.06,36.29v-5.06h.38l.15.64v4.42h-.54Zm3.5,0l-3.2-4.34.08-.72,3.19,4.34-.07.72Zm0,0l-.16-.61v-4.45h.54v5.06h-.38Z"/><path class="cls-1" d="m27.08,7.6l3.67,3.67c-.06.14-.09.29-.09.44,0,.62.5,1.12,1.12,1.12s1.12-.5,1.12-1.12-.5-1.12-1.12-1.12c-.16,0-.31.03-.44.09l-3.91-3.91h-13.76l-3.86,3.86c-.14-.07-.31-.11-.48-.11-.62,0-1.12.5-1.12,1.12s.5,1.12,1.12,1.12,1.12-.5,1.12-1.12c0-.15-.03-.28-.08-.41l3.63-3.63h13.08Z"/><path class="cls-1" d="m3.37,9.01c.62,0,1.12-.5,1.12-1.12,0-.16-.03-.31-.09-.44L11.02.82h19.05l7.5,7.5c-.07.15-.11.31-.11.48,0,.62.5,1.12,1.12,1.12s1.12-.5,1.12-1.12-.5-1.12-1.12-1.12c-.14,0-.28.03-.4.08L30.41,0H10.68L3.82,6.87c-.14-.06-.29-.09-.44-.09-.62,0-1.12.5-1.12,1.12s.5,1.12,1.12,1.12Z"/><path class="cls-1" d="m8.99,18.59c.62,0,1.12-.5,1.12-1.12s-.5-1.12-1.12-1.12c-.16,0-.31.03-.44.09l-2.61-2.61v-3.02l2.48-2.48c.13.05.28.08.43.08.62,0,1.12-.5,1.12-1.12s-.5-1.12-1.12-1.12-1.12.5-1.12,1.12c0,.17.04.32.1.46l-2.71,2.71v3.7l2.85,2.85c-.06.14-.09.29-.09.44,0,.62.5,1.12,1.12,1.12Z"/><path class="cls-1" d="m12.22,14.79c.62,0,1.12-.5,1.12-1.12,0-.16-.03-.31-.09-.44l2.39-2.39h9.42c.16.41.57.71,1.04.71.62,0,1.12-.5,1.12-1.12s-.5-1.12-1.12-1.12c-.47,0-.88.29-1.04.71h-9.76l-2.63,2.63c-.14-.06-.29-.09-.44-.09-.62,0-1.12.5-1.12,1.12s.5,1.12,1.12,1.12Z"/><path class="cls-1" d="m13.33,18.48c.47,0,.88-.29,1.04-.71h9.13c.16.41.57.71,1.04.71.62,0,1.12-.5,1.12-1.12s-.5-1.12-1.12-1.12c-.47,0-.88.29-1.04.71h-9.13c-.16-.41-.57-.71-1.04-.71-.62,0-1.12.5-1.12,1.12s.5,1.12,1.12,1.12Z"/><path class="cls-1" d="m15.23,23.02c-.47,0-.87.29-1.04.71h-7.98s-4.69-4.7-4.69-4.7v-5.5c.41-.16.71-.57.71-1.04,0-.62-.5-1.12-1.12-1.12s-1.12.5-1.12,1.12c0,.47.29.88.71,1.04v5.84l5.17,5.17h8.32c.16.42.57.72,1.04.72.62,0,1.12-.5,1.12-1.12s-.5-1.12-1.12-1.12Z"/><path class="cls-1" d="m27.98,17.47c.62,0,1.12-.5,1.12-1.12s-.5-1.12-1.12-1.12c-.16,0-.31.03-.44.09l-1.77-1.77h-5.78c-.16-.41-.57-.71-1.04-.71-.62,0-1.12.5-1.12,1.12s.5,1.12,1.12,1.12c.47,0,.88-.29,1.04-.71h5.44l1.53,1.53c-.06.14-.09.29-.09.44,0,.62.5,1.12,1.12,1.12Z"/><path class="cls-1" d="m21.81,21.87c.16,0,.31-.03.45-.09l5.47,5.47,7.81-7.81v-6.34c.41-.16.71-.57.71-1.04,0-.62-.5-1.12-1.12-1.12s-1.12.5-1.12,1.12c0,.47.29.88.71,1.04v6l-6.99,6.99-4.89-4.89c.06-.14.09-.28.09-.44,0-.62-.5-1.12-1.12-1.12s-1.12.5-1.12,1.12.5,1.12,1.12,1.12Z"/><path class="cls-1" d="m33.2,25.07c-.62,0-1.12.5-1.12,1.12,0,.16.03.31.09.44l-3.96,3.96v1.43c-.41.16-.71.57-.71,1.04,0,.62.5,1.12,1.12,1.12s1.12-.5,1.12-1.12c0-.47-.29-.88-.71-1.04v-1.09l3.72-3.72c.14.06.29.09.44.09.62,0,1.12-.5,1.12-1.12s-.5-1.12-1.12-1.12Z"/><path class="cls-1" d="m25.39,35.02v-6.74l-7.91-7.91H7.7l-2.58-2.58c.06-.14.09-.29.09-.44,0-.62-.5-1.12-1.12-1.12s-1.12.5-1.12,1.12.5,1.12,1.12,1.12c.16,0,.31-.03.44-.09l2.82,2.82h9.78l7.42,7.42v6.4c-.41.16-.71.57-.71,1.04,0,.62.5,1.12,1.12,1.12s1.12-.5,1.12-1.12c0-.47-.29-.88-.71-1.04Z"/><path class="cls-1" d="m38.52,12.86c-.62,0-1.12.5-1.12,1.12,0,.47.29.88.71,1.04v5.66l-1.86,1.86c-.14-.06-.29-.09-.44-.09-.62,0-1.12.5-1.12,1.12s.5,1.12,1.12,1.12,1.12-.5,1.12-1.12c0-.16-.03-.31-.09-.44l2.1-2.1v-6c.41-.16.71-.57.71-1.04,0-.62-.5-1.12-1.12-1.12Z"/><path class="cls-1" d="m32.73,8.99c.62,0,1.12-.5,1.12-1.12s-.5-1.12-1.12-1.12c-.16,0-.31.03-.44.09l-3.46-3.46h-14.53c-.16-.41-.57-.71-1.04-.71-.62,0-1.12.5-1.12,1.12s.5,1.12,1.12,1.12c.47,0,.88-.29,1.04-.71h14.19l3.22,3.22c-.06.14-.09.29-.09.44,0,.62.5,1.12,1.12,1.12Z"/><path class="cls-1" d="m32.19,16.59c.41-.16.71-.57.71-1.04,0-.62-.5-1.12-1.12-1.12s-1.12.5-1.12,1.12c0,.47.29.88.71,1.04v1.17l-3.13,3.13c-.14-.06-.29-.09-.44-.09-.62,0-1.12.5-1.12,1.12s.5,1.12,1.12,1.12,1.12-.5,1.12-1.12c0-.16-.03-.31-.09-.44l3.37-3.37v-1.51Z"/></g></svg>